<?xml version="1.0" standalone="no"?>
<!DOCTYPE svg PUBLIC "-//W3C//DTD SVG 20010904//EN"
 "http://www.w3.org/TR/2001/REC-SVG-20010904/DTD/svg10.dtd">
<svg fill="#ffffff" version="1.0" xmlns="http://www.w3.org/2000/svg"
 width="150.000000pt" height="80.000000pt" viewBox="0 0 150.000000 80.000000"
 preserveAspectRatio="xMidYMid meet">

<g transform="translate(0.000000,80.000000) scale(0.100000,-0.100000)"
fill="#000000" stroke="none">
<path d="M0 400 l0 -400 750 0 750 0 0 400 0 400 -750 0 -750 0 0 -400z m1281
370 c28 -15 27 -90 -1 -97 -19 -5 -19 -6 5 -35 14 -16 25 -36 25 -43 0 -25 53
-77 97 -96 24 -10 43 -23 43 -29 0 -20 -42 -9 -96 25 -30 19 -57 35 -59 35 -3
0 -5 -32 -5 -71 0 -70 0 -71 55 -140 32 -42 61 -92 71 -124 15 -45 22 -55 46
-60 45 -10 33 -25 -21 -25 l-48 0 -34 65 c-39 76 -64 102 -104 111 -29 5 -31
3 -60 -62 -21 -50 -48 -88 -98 -139 l-68 -70 45 63 c24 34 50 78 56 97 7 21
18 35 28 35 13 0 14 2 4 9 -10 6 -11 21 -3 72 14 85 14 274 0 239 -6 -14 -9
-47 -7 -75 2 -39 0 -50 -12 -50 -12 0 -15 14 -14 71 2 78 19 122 66 166 28 26
28 28 13 51 -15 24 -13 48 8 75 12 15 42 16 68 2z m-223 -326 c15 -10 22 -26
22 -47 0 -18 7 -51 15 -74 18 -53 17 -149 -2 -188 -17 -34 -52 -75 -64 -75 -5
0 -27 25 -50 56 l-42 57 -29 -62 -28 -61 -48 1 c-40 0 -44 2 -28 12 40 25 56
48 72 104 9 32 22 68 30 81 14 22 14 22 -28 22 -31 0 -49 -6 -69 -26 -15 -14
-30 -21 -33 -16 -11 19 29 53 78 65 47 12 50 15 88 90 34 67 43 77 66 77 15 0
38 -7 50 -16z m-956 -86 c-17 -17 -17 -269 0 -286 9 -9 1 -12 -37 -12 -38 0
-46 3 -37 12 17 17 17 269 0 286 -9 9 -1 12 37 12 38 0 46 -3 37 -12z m208
-127 c0 -114 3 -143 16 -155 14 -15 11 -16 -36 -16 -51 0 -51 0 -36 22 13 18
16 51 16 150 l0 128 -32 0 c-38 0 -50 -7 -66 -35 -10 -18 -11 -17 -12 13 l0
32 75 0 75 0 0 -139z m110 115 c0 -13 3 -33 6 -43 4 -10 -4 -2 -17 17 -18 25
-35 37 -59 41 -31 6 -29 7 18 8 49 1 52 -1 52 -23z m158 13 c-10 -5 -18 -19
-18 -29 0 -21 58 -189 72 -206 9 -12 -9 -64 -23 -64 -4 0 -19 33 -34 73 -57
150 -87 217 -103 227 -12 7 3 9 53 9 52 0 66 -2 53 -10z m175 -4 c-11 -8 -39
-60 -63 -120 -23 -58 -44 -104 -46 -102 -3 2 11 45 31 95 40 104 42 117 18
131 -14 8 -7 10 32 11 46 0 48 -1 28 -15z"/>
<path d="M951 359 c-14 -41 -6 -52 32 -43 46 9 53 16 28 26 -13 4 -25 17 -28
28 -8 29 -19 25 -32 -11z"/>
<path d="M964 272 c-7 -4 -1 -15 18 -30 l28 -24 0 31 c0 31 -20 41 -46 23z"/>
</g>
</svg>
