<?xml version="1.0" standalone="no"?>
<!DOCTYPE svg PUBLIC "-//W3C//DTD SVG 20010904//EN"
 "http://www.w3.org/TR/2001/REC-SVG-20010904/DTD/svg10.dtd">
<svg version="1.0" xmlns="http://www.w3.org/2000/svg"
 width="614.000000pt" height="406.000000pt" viewBox="0 0 614.000000 406.000000"
 preserveAspectRatio="xMidYMid meet">

<g transform="translate(0.000000,406.000000) scale(0.100000,-0.100000)"
fill="#000000" stroke="none">
<path fill="#ffffff" d="M5085 3956 c-66 -29 -144 -145 -145 -216 0 -37 33 -111 75 -166 14
-18 25 -44 25 -59 0 -22 -8 -30 -52 -49 -60 -27 -88 -55 -156 -159 -127 -190
-132 -205 -153 -387 -10 -85 -18 -215 -19 -289 l0 -134 32 -29 c17 -15 37 -28
44 -28 45 0 79 132 50 191 -30 60 -12 326 25 364 5 5 9 16 9 25 0 8 11 29 25
45 l24 30 1 -122 c0 -79 -6 -147 -17 -195 -13 -59 -17 -133 -17 -393 l-1 -320
-38 -140 c-20 -77 -37 -143 -37 -147 0 -5 24 -8 53 -8 66 0 89 -13 50 -28 -26
-10 -90 -30 -120 -38 -7 -2 -13 -12 -13 -23 0 -30 -78 -209 -129 -296 -74
-124 -182 -271 -274 -370 -57 -61 -67 -82 -24 -49 13 11 48 37 78 60 119 90
310 295 395 423 73 109 174 296 214 396 31 77 41 106 56 153 19 62 26 63 135
27 90 -30 110 -40 174 -85 89 -62 122 -98 136 -148 22 -83 119 -259 134 -244
3 4 5 2 3 -3 -1 -6 19 -58 47 -117 l49 -108 208 0 c178 0 208 2 208 15 0 36
-87 79 -203 100 -36 7 -50 17 -53 41 -3 22 -93 279 -107 309 -8 17 -23 48 -33
70 -10 22 -48 81 -84 131 -66 92 -90 123 -190 243 -30 36 -77 95 -105 131
l-50 65 1 185 c1 102 5 225 10 275 11 107 20 113 88 62 66 -51 201 -139 276
-181 36 -19 77 -42 91 -50 15 -9 55 -18 91 -22 l65 -6 13 31 c25 62 -33 115
-140 126 -63 6 -69 9 -200 106 -154 115 -171 138 -206 278 -27 108 -48 145
-107 195 -80 69 -86 76 -81 90 6 16 36 26 80 26 35 0 44 13 44 61 0 17 8 36
20 46 24 21 26 39 5 47 -12 4 -15 25 -15 95 l0 89 -40 35 c-64 54 -158 72
-225 43z"/>
<path fill="#ffffff" d="M4120 2684 c-43 -30 -77 -85 -85 -138 -4 -24 -29 -74 -60 -121 -81
-124 -102 -164 -130 -250 -15 -44 -28 -81 -29 -82 -6 -6 -209 -52 -256 -58
-75 -9 -137 -38 -188 -88 -55 -53 -82 -103 -75 -142 12 -82 10 -80 49 -33 66
79 126 140 158 159 28 17 52 19 219 19 109 0 228 6 285 14 53 8 125 17 160 21
l62 7 -1 -69 c-1 -37 -4 -99 -8 -137 l-6 -69 -74 84 c-123 140 -117 136 -203
138 -74 2 -76 1 -103 -31 -37 -44 -76 -133 -104 -238 -13 -47 -29 -103 -36
-125 -8 -22 -23 -74 -35 -115 -12 -41 -35 -100 -51 -131 -24 -49 -37 -61 -95
-93 -37 -21 -92 -53 -123 -73 -54 -35 -55 -36 -31 -45 35 -13 363 0 372 16 4
6 8 29 8 51 0 35 19 80 41 95 10 7 79 143 79 156 0 18 50 168 59 177 5 5 32
-27 61 -70 30 -43 69 -99 87 -125 18 -26 33 -52 33 -57 0 -5 4 -11 8 -13 5 -1
25 -28 44 -58 109 -170 185 -166 313 15 23 33 54 81 68 107 34 62 87 217 94
278 l5 48 -78 30 c-44 16 -86 32 -94 36 -8 3 27 3 78 0 l92 -6 0 32 c0 52 -20
169 -47 280 -31 125 -44 158 -77 197 -22 26 -24 34 -16 69 13 55 12 170 -2
216 -13 43 -68 95 -127 118 -19 8 -69 13 -112 13 -44 0 -79 4 -79 8 0 14 -12
10 -50 -17z m-20 -325 c0 -52 2 -57 25 -63 13 -3 37 -22 51 -40 27 -33 30 -34
81 -29 44 5 53 3 53 -10 0 -46 -229 -111 -325 -93 -42 8 -44 21 -16 117 23 80
53 149 82 191 l22 30 13 -23 c7 -13 13 -49 14 -80z"/>
<path fill="#ffffff" d="M2000 2341 c0 -5 19 -12 43 -15 69 -11 117 -51 157 -132 41 -83 51
-108 80 -189 12 -33 28 -73 35 -90 7 -16 20 -52 29 -79 10 -27 25 -70 35 -95
11 -25 29 -73 41 -106 12 -33 26 -69 31 -80 5 -11 22 -56 38 -100 16 -44 42
-111 56 -150 15 -38 30 -81 35 -95 44 -137 75 -153 110 -57 13 34 29 73 36 87
6 14 38 90 69 170 31 80 68 168 81 197 13 28 24 56 24 60 0 7 107 273 159 398
28 65 63 138 71 148 5 7 21 26 35 44 14 17 49 41 80 54 30 12 55 26 55 31 0
11 -387 10 -394 -1 -3 -5 9 -12 27 -15 73 -14 116 -87 101 -174 -8 -51 -58
-199 -94 -277 -5 -11 -30 -74 -55 -140 -39 -99 -90 -229 -146 -374 -6 -13 -11
-22 -14 -20 -2 2 -31 83 -65 179 -33 96 -67 191 -75 210 -7 19 -28 76 -45 125
-17 50 -49 139 -71 200 -21 60 -39 126 -39 146 0 61 47 105 133 123 15 4 25
11 22 16 -8 13 -585 13 -585 1z"/>
<path fill="#ffffff" d="M309 2317 c67 -27 89 -55 101 -132 11 -69 12 -834 1 -913 -10 -69
-36 -103 -99 -127 -29 -11 -52 -23 -52 -27 0 -5 110 -8 245 -8 157 0 245 4
245 10 0 6 -8 10 -17 10 -10 0 -37 9 -61 20 -34 15 -48 29 -65 67 -22 47 -22
55 -22 508 0 417 2 464 18 505 20 51 48 75 110 95 37 12 15 13 -208 14 l-250
0 54 -22z"/>
<path fill="#ffffff" d="M866 2263 c-3 -42 -6 -115 -5 -162 l1 -86 14 50 c33 113 73 178 129
207 53 28 145 47 228 48 l67 0 -1 -522 c0 -375 -4 -532 -12 -556 -19 -50 -62
-89 -107 -97 -96 -16 -26 -25 200 -25 132 0 240 4 240 8 0 4 -20 13 -44 20
-58 15 -91 58 -105 136 -7 38 -11 240 -11 549 l0 490 98 -6 c208 -11 289 -71
333 -244 27 -110 31 -50 13 195 l-6 72 -512 0 -513 0 -7 -77z"/>
<path fill="#ffffff" d="M240 890 c0 -7 982 -10 2925 -10 1943 0 2925 3 2925 10 0 7 -982 10
-2925 10 -1943 0 -2925 -3 -2925 -10z"/>
<path fill="#ffffff" d="M283 723 c16 -4 18 -15 15 -104 l-3 -99 25 0 25 0 -3 101 -3 100 33
-3 33 -3 0 -98 c0 -58 4 -97 10 -97 6 0 9 34 7 87 l-3 88 45 -50 c25 -27 56
-65 68 -82 42 -59 48 -52 48 57 0 85 2 99 18 103 9 3 -1 5 -22 6 -35 1 -38 -1
-22 -12 14 -10 16 -25 14 -77 -3 -73 2 -74 -82 29 l-50 61 -85 -1 c-47 -1 -78
-3 -68 -6z"/>
<path fill="#ffffff" d="M646 708 c-9 -12 -16 -30 -16 -40 0 -17 58 -68 78 -68 17 0 26 -48
12 -65 -7 -8 -22 -15 -34 -16 -11 0 -15 -3 -8 -6 23 -9 72 18 78 44 10 38 -11
71 -56 89 -33 14 -40 21 -40 44 0 19 6 30 18 33 15 4 15 5 0 6 -9 0 -24 -9
-32 -21z"/>
<path fill="#ffffff" d="M712 723 c9 -2 21 -16 27 -31 l9 -27 1 30 c1 27 -3 31 -26 32 -16 0
-20 -1 -11 -4z"/>
<path fill="#ffffff" d="M768 700 c-5 -35 3 -39 17 -7 7 15 20 23 43 25 l33 3 -3 -100 -3
-101 27 0 c25 0 26 2 17 29 -5 15 -9 59 -7 97 l3 69 32 3 c23 2 35 -3 47 -20
l16 -22 0 22 c0 13 6 22 16 22 13 0 15 -15 12 -100 l-3 -100 25 0 c25 0 25 0
25 97 0 68 4 98 13 100 8 3 12 -5 12 -24 l0 -28 13 25 c9 18 22 26 45 28 l33
3 -3 -100 -3 -101 25 0 25 0 -3 100 -3 100 30 0 c16 0 37 -7 45 -16 15 -14 16
-14 16 1 0 10 7 15 18 13 14 -3 17 -17 20 -91 3 -85 3 -87 33 -103 17 -8 42
-13 57 -11 25 4 25 4 -4 6 -49 2 -56 19 -53 121 l4 90 -306 0 -307 0 -4 -30z"/>
<path fill="#ffffff" d="M1492 718 c8 -7 18 -20 21 -28 4 -10 6 -7 6 8 1 25 31 31 31 6 0 -14
1 -14 16 0 8 9 29 16 46 16 l30 0 -4 -100 -3 -100 30 0 c22 0 26 3 17 12 -8 8
-12 45 -12 100 l0 88 28 0 c32 0 44 -8 61 -35 10 -18 11 -17 9 10 l-3 30 -145
3 c-119 2 -142 0 -128 -10z"/>
<path fill="#ffffff" d="M1835 718 c-74 -43 -80 -135 -13 -182 34 -24 42 -19 19 10 -11 14
-23 40 -26 58 -8 40 19 104 48 116 12 5 15 9 7 9 -8 0 -24 -5 -35 -11z"/>
<path fill="#ffffff" d="M1917 720 c27 -11 53 -59 53 -99 0 -17 -9 -47 -20 -66 l-20 -36 27
16 c30 18 53 56 53 89 0 43 -57 106 -95 105 -19 0 -18 -1 2 -9z"/>
<path fill="#ffffff" d="M2098 700 c-5 -35 3 -39 17 -7 7 15 20 23 43 25 l33 3 -3 -100 -3
-101 28 0 c24 0 26 2 17 19 -5 11 -10 56 -10 100 l0 81 34 0 c23 0 38 -7 49
-22 l16 -23 0 23 c1 13 7 22 17 22 13 0 15 -15 12 -100 l-3 -100 25 0 25 0 -3
100 c-3 100 -3 100 21 100 30 0 52 -42 37 -71 -6 -10 -15 -19 -20 -19 -6 0
-10 -7 -10 -15 0 -8 4 -15 8 -15 5 0 17 -18 27 -40 12 -26 25 -40 37 -40 17 0
16 4 -7 50 l-26 51 20 25 c23 29 16 55 -19 74 -10 6 -92 10 -188 10 l-170 0
-4 -30z"/>
<path fill="#ffffff" d="M2613 703 c-8 -22 -8 -32 2 -39 7 -5 16 -19 20 -31 5 -19 2 -22 -32
-26 l-38 -4 41 -1 c36 -2 43 -6 54 -31 6 -17 9 -35 5 -40 -4 -7 5 -11 24 -11
l30 0 -25 58 c-14 31 -36 79 -48 106 l-23 48 -10 -29z"/>
<path fill="#ffffff" d="M2753 723 c16 -4 18 -15 15 -104 -2 -61 1 -99 7 -99 6 0 9 34 7 87
l-2 88 50 -55 c28 -30 58 -67 67 -82 34 -56 43 -44 43 57 0 79 3 96 18 104 14
8 9 10 -22 11 -35 0 -38 -2 -22 -13 14 -10 16 -25 14 -77 l-3 -65 -64 78 c-56
67 -68 77 -95 76 -18 -1 -23 -3 -13 -6z"/>
<path fill="#ffffff" d="M3018 718 c-42 -33 -26 -78 40 -112 25 -13 32 -23 32 -46 0 -25 -5
-31 -32 -39 -27 -7 -28 -9 -10 -10 34 -1 61 16 73 46 13 34 -10 70 -57 89 -40
17 -52 39 -35 65 13 22 11 24 -11 7z"/>
<path fill="#ffffff" d="M3074 721 c11 -4 23 -16 27 -27 7 -18 8 -18 8 2 1 21 -17 35 -42 33
-7 0 -3 -4 7 -8z"/>
<path fill="#ffffff" d="M3153 718 c16 -12 18 -26 15 -106 l-3 -92 25 0 c24 0 25 2 22 50 -4
45 -2 50 17 50 13 0 25 -9 31 -22 7 -18 9 -12 8 27 0 28 -2 42 -5 33 -3 -11
-14 -18 -29 -18 -21 0 -24 4 -24 40 0 38 1 40 33 40 36 0 51 -8 60 -30 4 -9 6
-4 4 10 -2 24 -4 25 -87 28 -73 2 -82 1 -67 -10z"/>
<path fill="#ffffff" d="M3362 705 c-16 -13 -35 -39 -42 -56 -11 -26 -11 -36 3 -65 20 -41 71
-74 112 -72 l30 1 -30 4 c-39 6 -63 28 -76 72 -13 46 8 111 42 128 17 9 19 13
7 13 -9 0 -30 -11 -46 -25z"/>
<path fill="#ffffff" d="M3460 717 c13 -7 31 -24 38 -37 18 -34 10 -115 -14 -142 l-19 -21 30
17 c32 19 55 57 55 90 0 42 -57 105 -95 106 -17 0 -17 -2 5 -13z"/>
<path fill="#ffffff" d="M3578 721 c16 -10 24 -143 11 -178 -8 -21 -6 -23 27 -23 28 0 34 3
26 13 -5 6 -10 52 -11 100 l0 88 27 -3 c19 -2 29 -11 37 -32 8 -24 6 -31 -13
-46 l-22 -18 31 -51 c18 -28 38 -51 45 -51 19 0 18 4 -11 56 -25 44 -25 44 -5
64 25 25 25 45 0 70 -16 16 -33 20 -87 20 -42 0 -63 -4 -55 -9z"/>
<path fill="#ffffff" d="M3784 717 c15 -11 17 -26 14 -105 -2 -57 1 -92 7 -92 6 0 9 32 7 82
l-2 83 25 -50 c13 -27 29 -62 34 -77 6 -16 15 -28 21 -28 19 0 22 28 7 57 -19
34 -42 90 -52 121 -5 17 -14 22 -43 22 -32 0 -34 -1 -18 -13z"/>
<path fill="#ffffff" d="M3973 718 c-16 -21 -24 -50 -12 -42 7 4 10 -19 7 -75 -3 -81 -3 -81
22 -81 l25 0 -3 92 c-3 79 -1 94 14 105 16 12 15 13 -13 13 -17 0 -35 -6 -40
-12z"/>
<path fill="#ffffff" d="M4140 711 c-7 -13 -8 -27 -3 -34 5 -7 14 -24 21 -39 11 -27 10 -28
-17 -28 -24 0 -28 3 -24 20 8 30 -4 24 -15 -8 -9 -27 -9 -27 27 -24 42 4 62
-13 65 -53 1 -20 6 -25 29 -25 23 0 26 3 17 18 -6 9 -28 57 -49 106 -36 82
-40 87 -51 67z"/>
<path fill="#ffffff" d="M4283 719 c9 -5 17 -17 17 -25 0 -8 4 -13 9 -10 5 3 20 -10 35 -28
14 -19 32 -40 39 -48 7 -7 25 -30 41 -50 16 -21 32 -38 37 -38 5 0 9 45 9 101
l0 100 33 -3 32 -3 3 -83 c2 -53 -1 -89 -9 -98 -9 -12 -5 -14 25 -14 33 0 36
2 26 19 -5 11 -10 56 -10 100 l0 81 32 0 c21 0 41 -9 60 -27 24 -23 28 -35 28
-79 0 -45 -4 -56 -27 -75 l-28 -22 29 7 c40 10 57 30 63 74 6 50 -10 88 -49
112 -28 17 -50 20 -143 19 -60 0 -104 -3 -97 -6 8 -3 12 -28 12 -76 l-1 -72
-20 25 c-10 14 -28 35 -39 48 -11 13 -29 36 -40 52 -16 23 -29 30 -53 30 -27
-1 -29 -2 -14 -11z"/>
<path  fill="#ffffff" d="M4795 699 c-29 -26 -35 -38 -35 -70 0 -22 7 -51 16 -65 18 -26 63
-54 86 -53 7 0 3 4 -9 9 -28 11 -63 66 -63 98 0 36 30 93 54 102 17 7 17 9 4
9 -10 1 -33 -13 -53 -30z"/>
<path fill="#ffffff" d="M5099 711 c10 -10 26 -41 35 -69 10 -28 25 -68 35 -88 18 -36 19 -37
30 -16 8 15 8 27 1 39 -17 30 -50 114 -50 128 0 7 8 16 18 18 9 3 -7 5 -35 6
-52 1 -53 1 -34 -18z"/>
<path fill="#ffffff" d="M5248 718 c6 -8 9 -25 6 -39 -4 -17 -1 -15 10 9 12 26 21 33 38 30
22 -3 23 -7 23 -101 0 -97 0 -97 25 -97 25 0 25 0 25 97 0 96 1 98 24 101 13
2 28 -2 32 -10 12 -19 11 -145 -1 -169 -10 -17 -7 -19 25 -19 34 0 46 12 25
25 -5 3 -10 44 -10 91 l0 84 34 0 c23 0 42 -8 60 -27 47 -46 47 -103 0 -150
l-26 -26 29 7 c68 16 87 109 34 168 l-29 33 -168 3 c-141 3 -166 1 -156 -10z"/>
<path fill="#ffffff" d="M5896 708 c-9 -12 -16 -30 -16 -39 0 -19 39 -54 71 -64 23 -8 35 -50
19 -70 -6 -7 -21 -16 -33 -18 -22 -4 -22 -4 1 -6 39 -2 72 27 72 64 0 35 -11
47 -63 75 -38 20 -50 65 -20 73 16 4 16 5 1 6 -9 0 -24 -9 -32 -21z"/>
<path fill="#ffffff" d="M5962 723 c9 -2 21 -16 27 -31 l9 -27 1 30 c1 27 -3 31 -26 32 -16 0
-20 -1 -11 -4z"/>
<path fill="#ffffff" d="M4920 711 c0 -6 4 -12 9 -16 6 -3 13 -26 17 -50 5 -34 2 -54 -13 -84
-17 -34 -18 -39 -4 -31 63 33 77 119 28 164 -30 28 -37 31 -37 17z"/>
<path fill="#ffffff" d="M5737 700 c-3 -11 -1 -22 3 -25 4 -3 13 -19 19 -36 l11 -31 -35 4
c-24 3 -36 -1 -40 -10 -3 -8 -3 -17 0 -20 3 -3 5 0 5 6 0 7 16 12 38 12 32 0
39 -4 49 -29 8 -21 8 -32 0 -40 -8 -8 0 -11 27 -11 30 0 36 3 28 13 -5 6 -25
50 -45 97 -36 88 -51 105 -60 70z"/>
<path fill="#ffffff" d="M5717 663 c-4 -3 -7 -13 -7 -22 1 -13 3 -13 11 2 11 19 8 33 -4 20z"/>
<path fill="#ffffff" d="M2587 653 c-4 -3 -7 -13 -7 -22 1 -13 3 -13 11 2 11 19 8 33 -4 20z"/>
<path fill="#ffffff" d="M5230 631 c-12 -24 -13 -34 -1 -27 9 6 22 46 15 46 -2 0 -8 -9 -14
-19z"/>
<path fill="#ffffff" d="M620 552 c0 -20 5 -28 18 -28 17 0 17 3 4 28 -7 15 -15 28 -18 28 -2
0 -4 -13 -4 -28z"/>
<path fill="#ffffff" d="M2980 554 c0 -22 5 -30 19 -30 17 0 18 2 3 26 -9 14 -17 27 -19 29
-2 2 -3 -9 -3 -25z"/>
<path fill="#ffffff" d="M4080 568 c0 -6 -7 -20 -17 -30 -15 -17 -15 -18 4 -18 15 0 20 7 21
30 0 17 -1 30 -4 30 -2 0 -4 -5 -4 -12z"/>
<path fill="#ffffff" d="M5673 553 c-4 -10 -11 -21 -17 -25 -6 -4 2 -8 18 -8 24 0 26 2 16 15
-6 8 -9 19 -5 25 3 5 4 10 0 10 -3 0 -9 -8 -12 -17z"/>
<path fill="#ffffff" d="M5878 550 c-3 -20 0 -26 13 -26 11 0 15 4 10 11 -5 5 -10 17 -13 25
-3 10 -6 6 -10 -10z"/>
<path fill="#ffffff" d="M2540 540 c-9 -17 -8 -20 9 -20 14 0 18 5 14 20 -3 11 -7 20 -9 20
-2 0 -8 -9 -14 -20z"/>
<path fill="#ffffff" d="M4295 540 c-8 -13 -1 -24 14 -19 6 3 7 10 2 18 -6 10 -10 10 -16 1z"/>
<path fill="#ffffff" d="M1878 513 c6 -2 18 -2 25 0 6 3 1 5 -13 5 -14 0 -19 -2 -12 -5z"/>
<path fill="#ffffff" d="M2348 210 c3 -77 0 -115 -8 -125 -11 -13 -7 -15 24 -15 34 0 36 1 22
16 -13 12 -16 39 -16 125 0 80 -3 109 -12 109 -10 0 -12 -27 -10 -110z"/>
<path fill="#ffffff" d="M3315 311 c-3 -5 -1 -12 5 -16 14 -9 13 -72 -1 -77 -9 -3 -9 -9 0
-25 15 -29 14 -62 -3 -95 -12 -23 -12 -26 0 -21 8 3 14 1 14 -5 0 -5 11 -7 25
-5 21 5 22 7 10 20 -11 11 -15 41 -15 124 0 88 -3 109 -14 109 -8 0 -17 -4
-21 -9z"/>
<path fill="#ffffff" d="M3947 198 c1 -68 2 -126 2 -129 1 -3 13 -4 27 -1 18 3 22 8 15 15 -7
7 -11 57 -11 124 0 101 -2 113 -17 113 -16 0 -18 -12 -16 -122z"/>
<path fill="#ffffff" d="M4542 304 c-20 -14 -22 -23 -22 -120 0 -86 -3 -104 -15 -104 -8 0
-15 9 -15 20 0 20 0 20 -20 0 -22 -22 -79 -27 -98 -8 -8 8 -12 48 -12 115 l0
103 -30 0 c-28 0 -30 -2 -19 -21 17 -32 8 -197 -11 -209 -10 -6 35 -9 130 -9
80 0 139 3 133 6 -18 7 -18 214 -1 231 17 17 7 15 -20 -4z"/>
<path fill="#ffffff" d="M4590 311 c0 -5 6 -11 14 -14 10 -4 14 -30 15 -106 1 -85 -2 -102
-17 -110 -14 -8 -10 -10 21 -11 35 0 37 2 27 20 -7 12 -10 61 -8 120 3 78 1
99 -9 96 -7 -3 -15 -1 -18 4 -8 13 -25 13 -25 1z"/>
<path fill="#ffffff" d="M4685 310 c3 -5 13 -10 21 -10 8 0 12 5 9 10 -3 6 -13 10 -21 10 -8
0 -12 -4 -9 -10z"/>
<path fill="#ffffff" d="M1491 279 c-27 -27 -31 -37 -31 -87 0 -46 5 -62 24 -83 33 -35 79
-53 113 -43 l28 8 -25 3 c-57 8 -70 15 -85 43 -28 55 -12 168 27 183 8 4 7 6
-4 6 -9 1 -30 -13 -47 -30z"/>
<path fill="#ffffff" d="M1632 293 c9 -10 18 -25 21 -33 3 -8 6 0 6 18 1 26 -3 32 -21 32 -19
0 -20 -2 -6 -17z"/>
<path fill="#ffffff" d="M3008 302 c8 -6 13 -40 14 -106 2 -86 0 -100 -17 -112 -16 -12 -5
-14 88 -14 l107 0 -1 38 c0 29 -2 33 -9 17 -13 -34 -36 -46 -77 -43 l-38 3 -3
113 -3 112 -37 0 c-23 0 -32 -3 -24 -8z"/>
<path fill="#ffffff" d="M3152 298 c9 -7 18 -22 21 -33 3 -13 5 -8 6 13 1 27 -3 32 -21 32
-19 0 -20 -1 -6 -12z"/>
<path fill="#ffffff" d="M4439 301 c7 -5 17 -15 22 -22 6 -10 9 -8 9 9 0 16 -6 22 -22 22 -17
0 -19 -3 -9 -9z"/>
<path fill="#ffffff" d="M3109 217 c-16 -21 -15 -24 1 -45 18 -21 18 -21 17 23 0 25 -1 45 -1
45 -1 0 -8 -11 -17 -23z"/>
<path fill="#ffffff" d="M4410 225 c0 -7 -8 -19 -17 -24 -16 -9 -17 -10 -1 -11 9 0 19 -10 21
-22 2 -13 5 -2 6 25 0 26 -1 47 -4 47 -3 0 -5 -7 -5 -15z"/>
<path fill="#ffffff" d="M1960 220 c0 -6 5 -10 10 -10 15 0 13 -127 -2 -133 -7 -3 7 -5 32 -5
25 0 37 2 28 5 -14 3 -18 18 -20 70 -3 58 -6 67 -25 74 -14 5 -23 5 -23 -1z"/>
<path fill="#ffffff" d="M2074 208 c21 -29 21 -102 0 -122 -14 -15 -11 -16 28 -16 34 1 39 3
26 11 -14 8 -18 23 -18 68 0 52 -2 59 -26 69 -25 12 -25 12 -10 -10z"/>
<path fill="#ffffff" d="M2165 224 c-6 -2 -9 -44 -7 -105 3 -76 0 -104 -10 -110 -8 -6 4 -9
32 -9 28 0 40 3 32 9 -10 6 -13 34 -10 109 2 78 0 103 -10 107 -8 3 -14 5 -15
4 -1 0 -6 -2 -12 -5z"/>
<path fill="#ffffff" d="M1700 188 c-26 -42 -25 -50 6 -87 19 -23 34 -31 59 -31 39 0 85 41
85 76 0 27 -45 83 -57 70 -4 -5 -2 -11 5 -13 16 -6 16 -95 0 -111 -16 -16 -53
-15 -67 2 -16 19 -17 77 -2 104 19 36 -7 27 -29 -10z"/>
<path fill="#ffffff" d="M1868 213 c8 -3 12 -27 12 -68 0 -41 -4 -65 -12 -68 -7 -3 4 -6 26
-6 32 -1 37 1 26 13 -6 8 -11 37 -10 63 3 72 2 73 -27 72 -16 0 -22 -3 -15 -6z"/>
<path fill="#ffffff" d="M2260 211 c0 -6 5 -13 10 -16 14 -9 12 -78 -2 -97 -7 -9 -22 -18 -33
-21 -15 -4 -14 -5 7 -6 18 -1 34 9 52 30 31 37 33 58 5 93 -21 26 -39 34 -39
17z"/>
<path fill="#ffffff" d="M2426 198 c-40 -56 -2 -129 65 -127 l34 1 -30 9 c-16 5 -36 16 -42
26 -15 20 -17 93 -3 93 6 0 10 5 10 10 0 17 -18 11 -34 -12z"/>
<path fill="#ffffff" d="M2508 195 c2 -14 11 -25 18 -25 15 0 17 10 8 34 -10 27 -32 19 -26
-9z"/>
<path fill="#ffffff" d="M2596 180 c23 -35 25 -42 13 -57 -12 -16 -12 -17 2 -5 13 10 19 9 29
-3 7 -8 10 -22 6 -30 -4 -12 3 -15 31 -15 31 0 34 2 21 13 -21 17 -61 77 -51
77 4 0 0 5 -9 11 -10 5 -18 19 -18 29 0 15 -7 20 -25 20 l-25 0 26 -40z"/>
<path fill="#ffffff" d="M2670 209 c0 -5 5 -7 10 -4 6 3 10 8 10 11 0 2 -4 4 -10 4 -5 0 -10
-5 -10 -11z"/>
<path fill="#ffffff" d="M2742 197 c-68 -72 33 -168 112 -106 32 25 35 73 7 107 -27 32 -43
27 -23 -7 13 -23 14 -37 7 -67 -9 -36 -13 -39 -45 -39 -32 0 -36 3 -45 39 -7
30 -6 44 7 67 20 35 10 38 -20 6z"/>
<path fill="#ffffff" d="M3231 201 c-43 -43 -13 -132 43 -130 15 0 16 2 6 6 -37 13 -52 71
-29 115 15 28 4 33 -20 9z"/>
<path fill="#ffffff" d="M3400 162 c0 -69 20 -96 67 -89 l28 4 -27 2 c-28 1 -28 2 -28 71 0
63 -2 70 -20 70 -18 0 -20 -7 -20 -58z"/>
<path fill="#ffffff" d="M3507 153 c1 -38 2 -71 2 -75 1 -5 13 -8 29 -8 23 1 24 2 10 11 -14
8 -18 24 -18 74 0 45 -4 65 -12 65 -9 0 -13 -19 -11 -67z"/>
<path fill="#ffffff" d="M3577 214 c-8 -8 1 -24 13 -24 4 0 10 7 14 15 5 15 -14 21 -27 9z"/>
<path fill="#ffffff" d="M3645 151 c0 -38 3 -67 7 -65 4 2 9 0 13 -6 3 -5 32 -10 63 -10 43 0
53 3 44 12 -14 14 -16 77 -3 110 8 22 7 24 -27 25 -21 1 -31 0 -24 -3 8 -4 12
-28 12 -68 0 -59 -1 -62 -25 -64 -24 -2 -25 1 -25 52 0 61 -7 86 -24 86 -7 0
-11 -24 -11 -69z"/>
<path fill="#ffffff" d="M3795 210 c3 -5 13 -10 21 -10 8 0 12 5 9 10 -3 6 -13 10 -21 10 -8
0 -12 -4 -9 -10z"/>
<path fill="#ffffff" d="M3851 194 c-12 -15 -21 -38 -21 -51 0 -34 43 -73 77 -72 l28 2 -26 4
c-44 7 -61 65 -35 116 19 34 4 35 -23 1z"/>
<path fill="#ffffff" d="M4036 195 c-34 -36 -33 -60 3 -96 38 -37 79 -38 115 -3 31 32 33 62
5 98 -27 34 -42 33 -23 -1 17 -34 18 -54 2 -88 -14 -31 -62 -35 -78 -6 -14 26
-13 84 2 99 6 6 9 14 5 18 -3 3 -17 -6 -31 -21z"/>
<path fill="#ffffff" d="M4700 205 c0 -8 4 -15 9 -15 5 0 11 7 15 15 3 9 0 15 -9 15 -8 0 -15
-7 -15 -15z"/>
<path fill="#ffffff" d="M4775 201 c4 -13 1 -29 -7 -38 -11 -14 -11 -16 0 -9 11 6 13 0 11
-26 -4 -41 6 -58 34 -58 19 0 19 1 4 13 -11 8 -17 30 -19 71 -2 39 -8 61 -17
64 -9 3 -11 -2 -6 -17z"/>
<path fill="#ffffff" d="M3587 132 c-25 -27 -21 -51 8 -58 14 -4 29 -4 32 0 4 3 -1 6 -10 6
-23 0 -22 46 1 59 14 9 15 10 1 11 -9 0 -23 -8 -32 -18z"/>
<path fill="#ffffff" d="M4709 131 c-20 -16 -22 -23 -13 -38 6 -10 24 -19 40 -20 20 -1 22 0
7 4 -27 5 -30 29 -6 55 21 24 2 23 -28 -1z"/>
<path fill="#ffffff" d="M2572 85 c-11 -13 -9 -15 8 -15 11 0 20 7 20 15 0 19 -11 19 -28 0z"/>
</g>
</svg>
